<svg width="205" height="244" viewBox="0 0 205 244" xmlns="http://www.w3.org/2000/svg"><title>bg-head</title><path d="M65.058 0c.67.023 1.338.148 1.962.398a5.995 5.995 0 0 1 1.713 1.036c.51.444.93.979 1.258 1.56.33.591.545 1.228.658 1.9a5.94 5.94 0 0 1-.023 2.003 5.834 5.834 0 0 1-3.742 4.404c-32.31 12.212-55.32 43.523-55.32 80.295 0 24.913 10.57 47.278 27.433 62.97a5.994 5.994 0 0 1 1.542 2.367c.306.9.397 1.867.25 2.811l-7.372 47.38 90.532 23.718 4.343-33.392a5.87 5.87 0 0 1 .794-2.276 5.772 5.772 0 0 1 1.645-1.753 5.607 5.607 0 0 1 2.211-.933 5.901 5.901 0 0 1 2.404.034l27.07 6.192 4.638-28.43c.113-.672.34-1.332.68-1.924a5.936 5.936 0 0 1 1.293-1.57 5.702 5.702 0 0 1 1.758-1.024 5.737 5.737 0 0 1 2.007-.353h19.268L181.16 113.47a6.433 6.433 0 0 1-.124-1.4l.998-29.852c-3.414-31.513-23.838-57.895-51.86-69.733a5.639 5.639 0 0 1-1.904-1.263 5.975 5.975 0 0 1-1.282-1.9 5.868 5.868 0 0 1-.442-2.254c0-.774.159-1.536.453-2.253a5.974 5.974 0 0 1 1.282-1.901 5.829 5.829 0 0 1 1.916-1.252 5.8 5.8 0 0 1 4.48.08c31.97 13.509 55.206 43.668 58.948 79.644.023.262.034.535.023.797l-.998 29.567 12.225 58.282c.181.842.159 1.73-.034 2.572a5.826 5.826 0 0 1-1.134 2.3 5.943 5.943 0 0 1-2.007 1.593 5.759 5.759 0 0 1-2.495.569h-21.49l-4.831 29.671a5.944 5.944 0 0 1-.84 2.208 5.808 5.808 0 0 1-1.644 1.684 5.899 5.899 0 0 1-2.177.9 5.883 5.883 0 0 1-2.36-.046l-26.876-6.146-4.366 33.596a5.817 5.817 0 0 1-2.506 4.075 5.882 5.882 0 0 1-2.268.91 5.875 5.875 0 0 1-2.438-.102L25.425 217.093a5.723 5.723 0 0 1-1.917-.91 5.879 5.879 0 0 1-1.462-1.537 5.837 5.837 0 0 1-.873-4.097l7.722-49.589C11.08 143.286 0 118.714 0 91.615 0 49.96 26.106 14.305 62.839.418A5.75 5.75 0 0 1 65.107.02L65.058 0z" fill="#FFF" fill-rule="evenodd" opacity=".1"/></svg>